<svg width="113" height="94" viewBox="0 0 113 94" fill="none" xmlns="http://www.w3.org/2000/svg">
<path d="M23 30.9999C32.5 -2.50003 92 -12.5 108 30.9999C111.941 43.9668 111.77 51.5427 108 65.4999C89 102 41 98.4999 23 65.4999" stroke="#8C8C8C" stroke-width="3" stroke-linecap="round"/>
<g style="mix-blend-mode:plus-darker">
<circle cx="66" cy="35" r="14" fill="#D9D9D9"/>
</g>
<path d="M73 52C67.9231 53.5086 65.0768 53.47 60 52C53.0688 53.8948 49.3386 55.4038 43 59V68C43.7512 70.9185 44.7327 71.7524 47 72.5H86.5C88.4916 71.5248 89.3834 70.5688 90.5 68V59C84.2125 54.7177 80.2442 53.5722 73 52Z" fill="#8C8C8C"/>
<path d="M2 45C0.895431 45 0 45.8954 0 47C0 48.1046 0.895431 49 2 49V45ZM45.4142 48.4142C46.1953 47.6332 46.1953 46.3668 45.4142 45.5858L32.6863 32.8579C31.9052 32.0768 30.6389 32.0768 29.8579 32.8579C29.0768 33.6389 29.0768 34.9052 29.8579 35.6863L41.1716 47L29.8579 58.3137C29.0768 59.0948 29.0768 60.3611 29.8579 61.1421C30.6389 61.9232 31.9052 61.9232 32.6863 61.1421L45.4142 48.4142ZM2 49H44V45H2V49Z" fill="#8C8C8C"/>
</svg>
