<svg width="113" height="94" viewBox="0 0 113 94" fill="none" xmlns="http://www.w3.org/2000/svg">
<path d="M23 30.9999C32.5 -2.50003 92 -12.5 108 30.9999C111.941 43.9668 111.77 51.5427 108 65.4999C89 102 41 98.4999 23 65.4999" stroke="#8C8C8C" stroke-width="3" stroke-linecap="round"/>
<g style="mix-blend-mode:plus-darker">
<circle cx="66" cy="35" r="14" fill="#D9D9D9"/>
</g>
<path d="M73 52C67.9231 53.5086 65.0768 53.47 60 52C53.0688 53.8948 49.3386 55.4038 43 59V68C43.7512 70.9185 44.7327 71.7524 47 72.5H86.5C88.4916 71.5248 89.3834 70.5688 90.5 68V59C84.2125 54.7177 80.2442 53.5722 73 52Z" fill="#8C8C8C"/>
<path d="M0.585786 45.5858C-0.195262 46.3668 -0.195262 47.6332 0.585786 48.4142L13.3137 61.1421C14.0948 61.9232 15.3611 61.9232 16.1421 61.1421C16.9232 60.3611 16.9232 59.0948 16.1421 58.3137L4.82843 47L16.1421 35.6863C16.9232 34.9052 16.9232 33.6389 16.1421 32.8579C15.3611 32.0768 14.0948 32.0768 13.3137 32.8579L0.585786 45.5858ZM44 49C45.1046 49 46 48.1046 46 47C46 45.8954 45.1046 45 44 45V49ZM2 49H44V45H2V49Z" fill="#8C8C8C"/>
</svg>
